<?xml version="1.0" encoding="utf-8"?>
<!-- Generator: Adobe Illustrator 28.0.0, SVG Export Plug-In . SVG Version: 6.00 Build 0)  -->
<svg version="1.1" id="a" xmlns="http://www.w3.org/2000/svg" xmlns:xlink="http://www.w3.org/1999/xlink" x="0px" y="0px"
	 viewBox="0 0 581.4 151.7" style="enable-background:new 0 0 581.4 151.7;" xml:space="preserve">
<style type="text/css">
	.st0{fill:#2C484C;stroke:#9AEAB5;stroke-width:18;stroke-miterlimit:10;}
	.st1{enable-background:new    ;}
	.st2{fill:#38A7BC;}
	.st3{fill:#38A7BC;stroke:#38A7BC;stroke-width:18;stroke-miterlimit:10;}
	.st4{fill:#1F6D77;}
	.st5{fill:#FFFFFF;}
</style>
<circle class="st0" cx="62.4" cy="97.6" r="35.2"/>
<g class="st1">
	<path d="M171.9,75.2H160l-19.9-30.1v30.1h-11.9V26.5h11.9L160,56.7V26.5h11.9V75.2z"/>
	<path d="M187.9,73.4c-3-1.6-5.4-3.9-7.2-6.9c-1.7-3-2.6-6.5-2.6-10.6c0-4,0.9-7.5,2.6-10.5c1.8-3,4.2-5.4,7.2-7
		c3.1-1.6,6.5-2.4,10.3-2.4c3.8,0,7.2,0.8,10.3,2.4c3.1,1.6,5.5,3.9,7.2,7c1.8,3,2.6,6.5,2.6,10.5c0,4-0.9,7.5-2.7,10.5
		c-1.8,3-4.2,5.4-7.3,7c-3.1,1.6-6.5,2.4-10.3,2.4C194.3,75.8,190.9,75,187.9,73.4z M203.9,63c1.6-1.7,2.4-4.1,2.4-7.2
		c0-3.1-0.8-5.5-2.3-7.2c-1.6-1.7-3.5-2.5-5.7-2.5c-2.3,0-4.2,0.8-5.8,2.5s-2.3,4-2.3,7.2c0,3.1,0.8,5.5,2.3,7.2
		c1.5,1.7,3.4,2.5,5.7,2.5C200.4,65.5,202.3,64.7,203.9,63z"/>
	<path d="M224.6,45.3c1.5-3,3.6-5.3,6.1-6.9c2.6-1.6,5.5-2.4,8.7-2.4c2.5,0,4.9,0.5,7,1.6c2.1,1.1,3.8,2.5,5,4.3v-18h11.9v51.4
		h-11.9v-5.6c-1.1,1.9-2.7,3.3-4.8,4.4c-2.1,1.1-4.5,1.7-7.2,1.7c-3.2,0-6.1-0.8-8.7-2.5c-2.6-1.6-4.6-4-6.1-7
		c-1.5-3-2.3-6.5-2.3-10.5C222.4,51.8,223.1,48.3,224.6,45.3z M248.9,48.8c-1.6-1.7-3.6-2.6-6-2.6s-4.4,0.8-6,2.5
		c-1.6,1.7-2.5,4-2.5,7c0,3,0.8,5.3,2.5,7c1.6,1.7,3.6,2.6,6,2.6s4.4-0.9,6-2.6c1.6-1.7,2.5-4.1,2.5-7
		C251.4,52.9,250.6,50.6,248.9,48.8z"/>
	<path d="M308.2,58.7h-26.9c0.2,2.4,1,4.2,2.3,5.5c1.4,1.3,3,1.9,5,1.9c3,0,5-1.2,6.2-3.8h12.6c-0.6,2.5-1.8,4.8-3.5,6.9
		c-1.7,2-3.8,3.6-6.4,4.8c-2.5,1.2-5.4,1.7-8.5,1.7c-3.8,0-7.2-0.8-10.1-2.4c-3-1.6-5.3-3.9-6.9-6.9c-1.7-3-2.5-6.5-2.5-10.6
		c0-4,0.8-7.5,2.5-10.6c1.6-3,3.9-5.3,6.9-6.9c3-1.6,6.4-2.4,10.2-2.4c3.8,0,7.1,0.8,10,2.4c2.9,1.6,5.2,3.8,6.8,6.7
		s2.5,6.3,2.5,10.2C308.4,56.3,308.4,57.5,308.2,58.7z M296.3,52.1c0-2-0.7-3.7-2.1-4.9c-1.4-1.2-3.1-1.8-5.2-1.8
		c-2,0-3.7,0.6-5,1.7c-1.4,1.2-2.2,2.8-2.5,4.9H296.3z"/>
	<path d="M369.9,26.5v48.8H358V46l-10.9,29.2h-9.6l-11-29.3v29.3h-11.9V26.5h14l13.7,33.8l13.5-33.8H369.9z"/>
	<path d="M378.3,45.3c1.5-3,3.6-5.3,6.1-6.9c2.6-1.6,5.5-2.4,8.7-2.4c2.7,0,5.1,0.6,7.2,1.7c2.1,1.1,3.6,2.6,4.8,4.4v-5.5H417v38.8
		h-11.9v-5.5c-1.2,1.8-2.8,3.3-4.8,4.4c-2.1,1.1-4.5,1.7-7.2,1.7c-3.1,0-6-0.8-8.6-2.5c-2.6-1.6-4.6-4-6.1-7
		c-1.5-3-2.3-6.5-2.3-10.5C376.1,51.8,376.8,48.3,378.3,45.3z M402.6,48.8c-1.6-1.7-3.6-2.6-6-2.6s-4.4,0.8-6,2.5
		c-1.6,1.7-2.5,4-2.5,7c0,3,0.8,5.3,2.5,7s3.6,2.6,6,2.6s4.4-0.9,6-2.6c1.6-1.7,2.5-4.1,2.5-7C405.1,52.9,404.3,50.6,402.6,48.8z"/>
	<path d="M442.7,37.9c2.1-1.2,4.4-1.8,6.9-1.8v12.6h-3.3c-3,0-5.2,0.6-6.7,1.9c-1.5,1.3-2.2,3.5-2.2,6.7v18h-11.9V36.5h11.9v6.5
		C438.9,40.8,440.6,39.1,442.7,37.9z"/>
	<path d="M479,75.2L467.2,59v16.3h-11.9V23.8h11.9v28.4l11.7-15.8h14.7l-16.1,19.4l16.3,19.3H479z"/>
	<path d="M534.6,58.7h-26.9c0.2,2.4,1,4.2,2.3,5.5c1.4,1.3,3,1.9,5,1.9c3,0,5-1.2,6.2-3.8h12.6c-0.6,2.5-1.8,4.8-3.5,6.9
		c-1.7,2-3.8,3.6-6.4,4.8c-2.5,1.2-5.4,1.7-8.5,1.7c-3.8,0-7.2-0.8-10.1-2.4c-3-1.6-5.3-3.9-6.9-6.9c-1.7-3-2.5-6.5-2.5-10.6
		c0-4,0.8-7.5,2.5-10.6c1.6-3,3.9-5.3,6.9-6.9c3-1.6,6.4-2.4,10.2-2.4c3.8,0,7.1,0.8,10,2.4c2.9,1.6,5.2,3.8,6.8,6.7
		c1.6,2.9,2.5,6.3,2.5,10.2C534.8,56.3,534.7,57.5,534.6,58.7z M522.6,52.1c0-2-0.7-3.7-2.1-4.9c-1.4-1.2-3.1-1.8-5.2-1.8
		c-2,0-3.7,0.6-5,1.7c-1.4,1.2-2.2,2.8-2.5,4.9H522.6z"/>
	<path d="M562.6,65.2v10.1h-6c-4.3,0-7.7-1.1-10.1-3.2c-2.4-2.1-3.6-5.5-3.6-10.3V46.3h-4.7v-9.9h4.7V27h11.9v9.4h7.8v9.9h-7.8v15.6
		c0,1.2,0.3,2,0.8,2.5c0.6,0.5,1.5,0.8,2.8,0.8H562.6z"/>
</g>
<g class="st1">
	<path class="st2" d="M151.8,99.8c2.2,1.9,3.2,4.5,3.2,7.9c0,1-0.1,2.1-0.3,3.1c-0.5,2.8-1.5,5.2-3,7.3c-1.5,2.1-3.5,3.6-5.9,4.7
		c-2.4,1.1-5.1,1.6-8,1.6h-8.5l4.9-27.4h8.5C146.6,97,149.7,97.9,151.8,99.8z M146.9,118.7c2.2-1.9,3.6-4.6,4.2-8
		c0.2-0.9,0.2-1.8,0.2-2.7c0-2.6-0.8-4.6-2.3-6c-1.5-1.4-3.8-2.1-6.8-2.1h-5l-3.9,21.7h5C141.9,121.6,144.7,120.7,146.9,118.7z"/>
	<path class="st2" d="M164.5,102.8l-3.8,21.5h-3.6l3.8-21.5H164.5z M161.9,98.8c-0.4-0.4-0.6-0.9-0.6-1.4c0-0.8,0.3-1.5,0.9-2
		c0.6-0.6,1.2-0.8,2-0.8c0.6,0,1.1,0.2,1.5,0.6c0.4,0.4,0.6,0.9,0.6,1.5c0,0.8-0.3,1.5-0.9,2c-0.6,0.6-1.2,0.8-2,0.8
		C162.8,99.3,162.3,99.1,161.9,98.8z"/>
	<path class="st2" d="M168.8,123.1c-1.4-1.1-2.2-2.5-2.2-4.3c0-0.3,0-0.6,0-0.7h3.5c-0.1,1.1,0.2,2,1,2.8c0.8,0.7,1.9,1.1,3.4,1.1
		c1.5,0,2.7-0.3,3.6-0.8c0.9-0.6,1.4-1.4,1.4-2.4c0-0.9-0.4-1.5-1.1-2s-1.9-1-3.4-1.6c-1.3-0.5-2.4-1-3.3-1.4
		c-0.9-0.4-1.6-1.1-2.2-1.9c-0.6-0.8-0.9-1.8-0.9-3c0-1.2,0.3-2.3,1-3.2c0.7-0.9,1.7-1.7,2.9-2.2c1.2-0.5,2.7-0.8,4.3-0.8
		c2.2,0,4,0.6,5.4,1.7c1.4,1.1,2.1,2.5,2.1,4.3c0,0.3,0,0.6,0,0.8h-3.4l0-0.5c0-1-0.4-1.9-1.2-2.5c-0.8-0.6-1.9-0.9-3.2-0.9
		c-1.3,0-2.3,0.3-3.2,0.9c-0.8,0.6-1.2,1.4-1.2,2.3c0,0.9,0.4,1.6,1.1,2.2c0.8,0.5,1.9,1.1,3.5,1.7c1.3,0.5,2.4,1,3.2,1.4
		c0.8,0.4,1.5,1,2.1,1.8c0.6,0.8,0.9,1.7,0.9,2.9c0,1.3-0.4,2.4-1.1,3.3s-1.8,1.7-3.1,2.2c-1.3,0.5-2.8,0.7-4.4,0.7
		C172.1,124.7,170.3,124.2,168.8,123.1z"/>
	<path class="st2" d="M190.2,107.7c1.2-1.7,2.7-3,4.4-3.9c1.8-0.9,3.7-1.4,5.7-1.4c2.6,0,4.7,0.6,6.2,1.9c1.5,1.3,2.3,3.1,2.5,5.3
		h-3.9c-0.1-1.3-0.7-2.3-1.6-3.1c-0.9-0.8-2.2-1.1-3.8-1.1c-2,0-3.8,0.7-5.3,2.1c-1.5,1.4-2.5,3.4-2.9,6c-0.1,0.9-0.2,1.6-0.2,2.2
		c0,1.9,0.5,3.4,1.5,4.4c1,1,2.4,1.6,4.1,1.6c1.6,0,2.9-0.4,4.1-1.1c1.2-0.7,2.1-1.8,2.7-3.1h3.9c-0.9,2.2-2.4,4-4.4,5.3
		c-2,1.3-4.2,2-6.8,2c-2.7,0-4.8-0.8-6.4-2.3c-1.6-1.5-2.4-3.7-2.4-6.3c0-0.8,0.1-1.7,0.2-2.5C188.2,111.3,189,109.4,190.2,107.7z"
		/>
	<path class="st2" d="M215.9,123.6c-1.4-0.7-2.4-1.8-3.2-3.1c-0.8-1.3-1.1-2.9-1.1-4.7c0-2.4,0.6-4.7,1.7-6.7c1.1-2,2.7-3.6,4.7-4.8
		c2-1.2,4.2-1.8,6.6-1.8c1.8,0,3.4,0.4,4.8,1.1c1.4,0.7,2.5,1.8,3.3,3.1c0.8,1.4,1.2,2.9,1.2,4.7c0,2.4-0.6,4.7-1.7,6.7
		c-1.2,2-2.7,3.6-4.7,4.8c-2,1.2-4.2,1.8-6.6,1.8C218.8,124.7,217.2,124.4,215.9,123.6z M225.7,120.3c1.4-0.9,2.4-2.2,3.2-3.7
		c0.8-1.5,1.2-3.2,1.2-4.9c0-2-0.6-3.5-1.7-4.6c-1.2-1.1-2.6-1.6-4.3-1.6c-1.7,0-3.2,0.5-4.6,1.4c-1.3,0.9-2.4,2.2-3.1,3.7
		c-0.7,1.5-1.1,3.2-1.1,5c0,1.9,0.6,3.4,1.7,4.5c1.1,1.1,2.5,1.6,4.2,1.6C222.8,121.7,224.3,121.2,225.7,120.3z"/>
	<path class="st2" d="M244.9,121l9.9-18.2h3.9l-12.3,21.5h-4.2l-4.6-21.5h3.9L244.9,121z"/>
	<path class="st2" d="M276.3,103.5c1.3,0.7,2.3,1.7,3,2.9c0.7,1.2,1,2.7,1,4.3c0,0.6-0.1,1.2-0.2,2c-0.1,0.7-0.3,1.4-0.5,2.1h-17.2
		c-0.1,0.5-0.1,0.9-0.1,1.1c0,1.8,0.5,3.2,1.6,4.2c1.1,1,2.5,1.5,4.3,1.5c1.5,0,2.9-0.4,4.1-1.1c1.2-0.7,2.1-1.7,2.7-2.9h3.9
		c-0.9,2.1-2.4,3.8-4.3,5.1c-2,1.3-4.2,1.9-6.8,1.9c-2.7,0-4.9-0.8-6.5-2.3c-1.6-1.6-2.5-3.7-2.5-6.4c0-0.8,0.1-1.6,0.2-2.4
		c0.4-2.2,1.2-4.2,2.4-5.9c1.2-1.7,2.7-3,4.5-3.9s3.7-1.4,5.8-1.4C273.4,102.5,274.9,102.8,276.3,103.5z M276.6,110.8
		c0-1.7-0.5-3-1.6-3.9s-2.4-1.4-4.1-1.4c-1.8,0-3.5,0.6-5,1.8c-1.5,1.2-2.5,2.8-3,4.9h13.6C276.6,111.7,276.6,111.2,276.6,110.8z"/>
	<path class="st2" d="M292.7,103.6c1.3-0.8,2.8-1.2,4.5-1.2l-0.7,3.7h-0.9c-1.9,0-3.4,0.5-4.7,1.5c-1.2,1-2.1,2.7-2.5,5l-2.1,11.7
		h-3.6l3.8-21.5h3.6l-0.7,4.1C290.3,105.5,291.4,104.4,292.7,103.6z"/>
	<path class="st2" d="M302,119.4l-6.3,10.6h-2.4l4.7-10.6H302z"/>
	<path class="st2" d="M321.1,103.4c1.6-2.1,3.5-3.8,5.8-5c2.3-1.2,4.7-1.8,7.2-1.8c3,0,5.5,0.7,7.5,2.2c2,1.4,3.3,3.5,3.8,6.1h-4.3
		c-0.5-1.6-1.4-2.8-2.6-3.7c-1.3-0.9-2.9-1.3-4.9-1.3c-1.9,0-3.7,0.4-5.4,1.3c-1.7,0.9-3.1,2.1-4.2,3.8c-1.2,1.6-1.9,3.5-2.3,5.7
		c-0.1,0.7-0.2,1.5-0.2,2.4c0,2.6,0.8,4.6,2.3,6.1c1.5,1.5,3.5,2.3,6,2.3c2,0,3.8-0.4,5.4-1.3s2.9-2.1,3.9-3.7h4.3
		c-1.5,2.6-3.5,4.6-6,6.1c-2.5,1.4-5.2,2.1-8.2,2.1c-2.2,0-4.2-0.5-5.9-1.4c-1.7-0.9-3.1-2.2-4-3.9c-1-1.7-1.5-3.6-1.5-5.8
		c0-0.9,0.1-1.8,0.2-2.8C318.5,108,319.5,105.6,321.1,103.4z"/>
	<path class="st2" d="M356,95.3l-5.2,29.1h-3.6l5.2-29.1H356z"/>
	<path class="st2" d="M364.4,102.8l-3.8,21.5H357l3.8-21.5H364.4z M361.8,98.8c-0.4-0.4-0.6-0.9-0.6-1.4c0-0.8,0.3-1.5,0.9-2
		c0.6-0.6,1.2-0.8,2-0.8c0.6,0,1.1,0.2,1.5,0.6s0.6,0.9,0.6,1.5c0,0.8-0.3,1.5-0.9,2c-0.6,0.6-1.2,0.8-2,0.8
		C362.6,99.3,362.2,99.1,361.8,98.8z"/>
	<path class="st2" d="M369.6,107.7c1.2-1.7,2.7-3,4.4-3.9c1.8-0.9,3.7-1.4,5.7-1.4c2.6,0,4.7,0.6,6.2,1.9c1.5,1.3,2.3,3.1,2.5,5.3
		h-3.9c-0.1-1.3-0.7-2.3-1.6-3.1c-0.9-0.8-2.2-1.1-3.8-1.1c-2,0-3.8,0.7-5.3,2.1c-1.5,1.4-2.5,3.4-2.9,6c-0.1,0.9-0.2,1.6-0.2,2.2
		c0,1.9,0.5,3.4,1.5,4.4c1,1,2.4,1.6,4.1,1.6c1.6,0,2.9-0.4,4.1-1.1c1.2-0.7,2.1-1.8,2.7-3.1h3.9c-0.9,2.2-2.4,4-4.4,5.3
		c-2,1.3-4.2,2-6.8,2c-2.7,0-4.8-0.8-6.4-2.3s-2.4-3.7-2.4-6.3c0-0.8,0.1-1.7,0.2-2.5C367.6,111.3,368.4,109.4,369.6,107.7z"/>
	<path class="st2" d="M399.2,113.6l8.3,10.8h-4.9l-6.8-9.5l-1.7,9.5h-3.6l5.2-29.1h3.6l-3,17.1l10-9.5h5L399.2,113.6z"/>
	<path class="st2" d="M415.3,119.4l-6.3,10.6h-2.4l4.7-10.6H415.3z"/>
	<path class="st2" d="M452.8,99.8c2.2,1.9,3.2,4.5,3.2,7.9c0,1-0.1,2.1-0.3,3.1c-0.5,2.8-1.5,5.2-3,7.3c-1.5,2.1-3.5,3.6-5.9,4.7
		c-2.4,1.1-5.1,1.6-8,1.6h-8.5l4.9-27.4h8.5C447.6,97,450.6,97.9,452.8,99.8z M447.9,118.7c2.2-1.9,3.6-4.6,4.2-8
		c0.2-0.9,0.2-1.8,0.2-2.7c0-2.6-0.8-4.6-2.3-6s-3.8-2.1-6.8-2.1h-5l-3.9,21.7h5C442.8,121.6,445.7,120.7,447.9,118.7z"/>
	<path class="st2" d="M475.9,103.5c1.3,0.7,2.3,1.7,3,2.9c0.7,1.2,1,2.7,1,4.3c0,0.6-0.1,1.2-0.2,2c-0.1,0.7-0.3,1.4-0.5,2.1h-17.2
		c-0.1,0.5-0.1,0.9-0.1,1.1c0,1.8,0.5,3.2,1.6,4.2c1.1,1,2.5,1.5,4.3,1.5c1.5,0,2.9-0.4,4.1-1.1c1.2-0.7,2.1-1.7,2.7-2.9h3.9
		c-0.9,2.1-2.4,3.8-4.3,5.1c-2,1.3-4.2,1.9-6.8,1.9c-2.7,0-4.9-0.8-6.5-2.3c-1.6-1.6-2.5-3.7-2.5-6.4c0-0.8,0.1-1.6,0.2-2.4
		c0.4-2.2,1.2-4.2,2.4-5.9c1.2-1.7,2.7-3,4.5-3.9c1.8-0.9,3.7-1.4,5.8-1.4C473,102.5,474.6,102.8,475.9,103.5z M476.3,110.8
		c0-1.7-0.5-3-1.6-3.9c-1.1-0.9-2.4-1.4-4.1-1.4c-1.8,0-3.5,0.6-5,1.8c-1.5,1.2-2.5,2.8-3,4.9h13.6
		C476.3,111.7,476.3,111.2,476.3,110.8z"/>
	<path class="st2" d="M491.2,95.3l-5.2,29.1h-3.6l5.2-29.1H491.2z"/>
	<path class="st2" d="M499.5,102.8l-3.8,21.5h-3.6l3.8-21.5H499.5z M496.9,98.8c-0.4-0.4-0.6-0.9-0.6-1.4c0-0.8,0.3-1.5,0.9-2
		c0.6-0.6,1.2-0.8,2-0.8c0.6,0,1.1,0.2,1.5,0.6s0.6,0.9,0.6,1.5c0,0.8-0.3,1.5-0.9,2c-0.6,0.6-1.2,0.8-2,0.8
		C497.8,99.3,497.3,99.1,496.9,98.8z"/>
	<path class="st2" d="M510.4,121l9.9-18.2h3.9l-12.3,21.5h-4.2l-4.6-21.5h3.9L510.4,121z"/>
	<path class="st2" d="M541.7,103.5c1.3,0.7,2.3,1.7,3,2.9c0.7,1.2,1,2.7,1,4.3c0,0.6-0.1,1.2-0.2,2c-0.1,0.7-0.3,1.4-0.5,2.1h-17.2
		c-0.1,0.5-0.1,0.9-0.1,1.1c0,1.8,0.5,3.2,1.6,4.2c1.1,1,2.5,1.5,4.3,1.5c1.5,0,2.9-0.4,4.1-1.1c1.2-0.7,2.1-1.7,2.7-2.9h3.9
		c-0.9,2.1-2.4,3.8-4.3,5.1c-2,1.3-4.2,1.9-6.8,1.9c-2.7,0-4.9-0.8-6.5-2.3c-1.6-1.6-2.5-3.7-2.5-6.4c0-0.8,0.1-1.6,0.2-2.4
		c0.4-2.2,1.2-4.2,2.4-5.9c1.2-1.7,2.7-3,4.5-3.9c1.8-0.9,3.7-1.4,5.8-1.4C538.8,102.5,540.4,102.8,541.7,103.5z M542.1,110.8
		c0-1.7-0.5-3-1.6-3.9c-1.1-0.9-2.4-1.4-4.1-1.4c-1.8,0-3.5,0.6-5,1.8c-1.5,1.2-2.5,2.8-3,4.9H542
		C542,111.7,542.1,111.2,542.1,110.8z"/>
	<path class="st2" d="M558.2,103.6c1.3-0.8,2.8-1.2,4.5-1.2l-0.7,3.7H561c-1.9,0-3.4,0.5-4.7,1.5c-1.2,1-2.1,2.7-2.5,5l-2.1,11.7
		h-3.6l3.8-21.5h3.6l-0.7,4.1C555.8,105.5,556.8,104.4,558.2,103.6z"/>
</g>
<circle class="st3" cx="62.4" cy="53.9" r="35.2"/>
<path class="st4" d="M76.4,30.7c0,1.9-1.6,3.5-3.5,3.5s-3.5-1.6-3.5-3.5s1.6-3.5,3.5-3.5S76.4,28.8,76.4,30.7z M55.3,30.7
	c0,1.9-1.6,3.5-3.5,3.5s-3.5-1.6-3.5-3.5s1.6-3.5,3.5-3.5S55.3,28.8,55.3,30.7z"/>
<path class="st5" d="M62.4,48.3C55.5,48.3,50,42.9,50,36v-5.3c0-1.1,0.7-1.8,1.8-1.8s1.8,0.7,1.8,1.8V36c0,4.9,3.9,8.8,8.8,8.8
	s8.8-3.9,8.8-8.8v-5.3c0-1.1,0.7-1.8,1.8-1.8s1.8,0.7,1.8,1.8V36C74.7,42.9,69.2,48.3,62.4,48.3z"/>
<path class="st5" d="M92.7,90c-3.8,0.2-3.8,3.4-3.8,3.4s-0.8-3.9-4.9-3.8c-3.6,0.1-3.9,3.8-3.9,3.8s-0.8-4.2-4.7-3.5
	c-3.6,0.7-3.2,4.2-3.2,4.2c-0.2-0.5-6.8-18.1-7-18.8c-0.7-1.8-2.7-2.2-3.8-1.9c-1.4,0.3-2.6,2.1-2.2,3.7c0.1,0.4,5.8,23.7,8.1,33.3
	c-1.8-2.3-5.1-5.7-8.9-6c-3.7-0.3-5.4,2.5-5.4,2.5c3.2,4.5,7.5,9.8,13.2,15c4.4,4,8.6,7.1,12.4,9.5c2.2,1.4,4.4,2.7,6.6,4.1
	c0.8-0.5,1.7-1.1,2.5-1.7c1.8-1.3,3.4-2.6,4.8-3.9c1.6-1.4,2.8-2.8,3.7-3.9c1.6-1.9,2.7-3.7,3.3-4.6c0.1-0.1,0.1-0.2,0.2-0.3
	c0.6-3.7,0.7-6.8,0.7-9.3c-0.1-7.1-1.6-11.6-2-13C97.6,95,95.9,89.8,92.7,90L92.7,90z"/>
</svg>
