<?xml version="1.0" encoding="UTF-8"?><svg id="a" xmlns="http://www.w3.org/2000/svg" width="581.4" height="151.67" viewBox="0 0 581.4 151.67"><circle cx="62.36" cy="97.61" r="35.25" fill="#2c484c" stroke="#9aeab5" stroke-miterlimit="10" stroke-width="18"/><text transform="translate(123.97 75.23)" font-family="Poppins-Bold, Poppins" font-size="69.45" font-weight="700"><tspan x="0" y="0">NodeMarket</tspan></text><text transform="translate(128.28 124.37)" fill="#38a7bc" font-family="Poppins-Italic, Poppins" font-size="39.32" font-style="italic"><tspan x="0" y="0">Discover, Click, Deliver</tspan></text><circle cx="62.36" cy="53.9" r="35.25" fill="#38a7bc" stroke="#38a7bc" stroke-miterlimit="10" stroke-width="18"/><path d="m76.43,30.74c0,1.93-1.58,3.52-3.52,3.52s-3.52-1.58-3.52-3.52,1.58-3.52,3.52-3.52,3.52,1.58,3.52,3.52Zm-21.11,0c0,1.93-1.58,3.52-3.52,3.52s-3.52-1.58-3.52-3.52,1.58-3.52,3.52-3.52,3.52,1.58,3.52,3.52Z" fill="#1f6d77" stroke-width="0"/><path d="m62.36,48.33c-6.86,0-12.31-5.45-12.31-12.31v-5.28c0-1.06.7-1.76,1.76-1.76s1.76.7,1.76,1.76v5.28c0,4.93,3.87,8.79,8.79,8.79s8.79-3.87,8.79-8.79v-5.28c0-1.06.7-1.76,1.76-1.76s1.76.7,1.76,1.76v5.28c0,6.86-5.45,12.31-12.31,12.31Z" fill="#fff" stroke-width="0"/><path d="m92.73,89.97c-3.78.25-3.82,3.36-3.82,3.36,0,0-.81-3.91-4.89-3.8-3.58.09-3.88,3.75-3.88,3.75,0,0-.8-4.24-4.73-3.49-3.61.69-3.18,4.22-3.18,4.22-.21-.53-6.77-18.11-7.04-18.77-.73-1.77-2.66-2.16-3.75-1.91-1.4.32-2.58,2.13-2.17,3.69.1.38,5.8,23.69,8.14,33.29-1.82-2.34-5.06-5.69-8.9-6-3.69-.3-5.41,2.54-5.41,2.54,3.15,4.47,7.45,9.75,13.21,15,4.36,3.98,8.62,7.1,12.4,9.52,2.21,1.36,4.41,2.71,6.62,4.07.82-.5,1.67-1.05,2.54-1.67,1.83-1.29,3.42-2.61,4.77-3.88,1.58-1.45,2.8-2.8,3.72-3.9,1.61-1.94,2.73-3.67,3.32-4.59.07-.12.14-.21.18-.28.6-3.66.72-6.84.69-9.34-.08-7.06-1.57-11.57-1.96-13.01-1.03-3.78-2.68-9-5.86-8.79Z" fill="#fff" stroke-width="0"/></svg>
